<?xml version="1.0" encoding="UTF-8" standalone="no"?>
<!-- Created with Inkscape (http://www.inkscape.org/) -->

<svg
   width="1929.786"
   height="896.71399"
   viewBox="0 0 510.58923 237.25557"
   version="1.1"
   id="svg157988"
   inkscape:version="1.1.2 (0a00cf5339, 2022-02-04)"
   sodipodi:docname="flisolvale22.svg"
   xmlns:inkscape="http://www.inkscape.org/namespaces/inkscape"
   xmlns:sodipodi="http://sodipodi.sourceforge.net/DTD/sodipodi-0.dtd"
   xmlns="http://www.w3.org/2000/svg"
   xmlns:svg="http://www.w3.org/2000/svg">
  <sodipodi:namedview
     id="namedview157990"
     pagecolor="#505050"
     bordercolor="#eeeeee"
     borderopacity="1"
     inkscape:pageshadow="0"
     inkscape:pageopacity="0"
     inkscape:pagecheckerboard="0"
     inkscape:document-units="px"
     showgrid="false"
     units="px"
     inkscape:zoom="0.36925856"
     inkscape:cx="713.59213"
     inkscape:cy="690.57303"
     inkscape:window-width="1920"
     inkscape:window-height="1005"
     inkscape:window-x="0"
     inkscape:window-y="0"
     inkscape:window-maximized="1"
     inkscape:current-layer="layer1" />
  <defs
     id="defs157985" />
  <g
     inkscape:label="Camada 1"
     inkscape:groupmode="layer"
     id="layer1">
    <g
       id="g158277"
       transform="translate(-4.8193731,-60.535904)">
      <g
         id="g158238"
         transform="translate(-5.6780657,-9.7229998)">
        <g
           transform="matrix(5.8066482,0,0,5.8066482,-2158.6338,204.58668)"
           id="g5951"
           style="fill:#f1c40f;fill-opacity:1"
           inkscape:export-xdpi="192"
           inkscape:export-ydpi="192"
           inkscape:export-filename="/home/micael/switch1.png">
          <path
             id="path5929"
             d="m 401.4756,-1.4161934 c -1.40804,4.0157197 -4.46929,4.748826 -7.08533,5.5510778 -0.2904,6.7973926 -0.27623,10.6054216 0.0426,11.4241276 0.87255,0.192059 1.97164,0.2053 3.29719,0.03968 0.7663,-0.08079 1.28861,0.09654 1.567,0.532096 0.36437,0.434433 0.10448,0.728598 -0.11073,0.786533 -0.33875,0.216516 -1.40888,0.355208 -3.21037,0.416035 -1.78406,-0.01847 -3.15428,-0.147076 -3.30894,-0.389051 -0.009,-0.334754 0.005,-1.059402 0.0419,-2.173917 -0.0184,-3.858509 0.439,-7.4269493 0.38677,-10.4214414 -2.84117,0.2394341 -4.18586,-0.9780606 -5.8728,-1.8794202 -0.25759,-0.058332 -0.52568,0.038908 -0.73797,0.1746222 -1.98648,1.5440842 -4.24186,2.8793919 -6.36764,4.2744351 -1.54858,0.989788 -1.83869,2.4021237 -0.87037,4.2370703 0.44654,0.805213 1.2225,2.285949 2.32804,4.442146 0.20703,0.004 0.55254,-0.148644 1.03647,-0.457947 1.51602,-1.20689 3.08293,-2.136583 4.28262,-3.332893 0.56749,-0.537065 0.76531,-0.813584 0.62227,-1.320054 -0.37222,-1.4307514 -1.07161,-2.398302 -1.48418,-2.952385 -1.15344,0.3282821 -1.99633,0.6625141 -2.52866,1.0027556 -0.43551,0.2783715 -0.69666,0.3725324 -0.63907,0.9196811 0.18157,0.4974015 0.33898,1.0102833 0.47218,1.5386203 0.0792,0.01746 0.58543,-0.203797 1.5184,-0.663802 0.61161,-0.32279 1.07211,-0.242177 1.38142,0.241749 -0.0826,0.59399 -0.66123,0.846996 -0.54033,0.754316 -0.81989,0.664792 -3.08473,2.51387 -3.61143,1.388191 -0.18557,-0.290352 -0.38539,-1.082847 -0.59945,-2.377463 -0.24499,-1.3429938 -0.45922,-1.9811502 -0.0771,-2.2001145 1.54854,-0.9897694 3.09314,-1.7725346 4.63372,-2.3482316 0.1943,0.022445 0.43976,-0.1115846 0.63904,0.012013 1.25128,0.7760739 2.46432,3.532429 2.60121,4.9985801 0.0388,0.416171 -0.23481,0.746414 -0.36744,0.923763 -2.01315,2.329287 -4.27753,3.808246 -6.70224,5.510591 -0.74336,0.543258 -1.3006,0.524597 -1.67177,-0.05613 -0.43302,-0.677506 -1.09203,-2.028509 -1.97705,-4.053021 -1.19032,-2.715496 -1.61213,-4.3885178 -1.26538,-5.0191176 0.56174,-1.0406685 1.97984,-2.2878921 4.25434,-3.7416533 1.27053,-0.7827047 4.71556,-2.6445427 4.72427,-3.3262893 -0.61068,-2.1532253 -0.65532,-3.411391 -0.037,-5.497309 0.78192,-2.1695606 1.85163,-3.2769918 3.19548,-4.5984928 2.33889,-1.852127 5.06618,-1.609112 6.88227,-1.229456 5.10053,1.4248733 6.27568,5.0709185 5.15802,8.8701096 z m -2.24348,-5.1097458 c -0.71141,-1.1130337 -1.97934,-1.8703877 -3.80378,-2.2720118 -1.82446,-0.4016175 -3.29319,-0.2467292 -4.40622,0.4646764 -1.45178,0.9279171 -2.54388,2.2053031 -3.27625,3.8321985 -0.86411,1.8473724 -0.86313,3.4485881 0.003,4.80356988 0.897,1.40340612 2.44456,2.11830642 4.64266,2.14478132 1.94271,0.053419 3.66411,-0.3993098 5.16429,-1.3581624 1.3066,-0.83512662 2.11707,-1.96660549 2.43136,-3.3944274 0.33182,-1.5071496 0.0801,-2.9140407 -0.75498,-4.2206249 z"
             style="font-weight:normal;font-size:72px;font-family:'Jiggery pokery';fill:#f1c40f;fill-opacity:1;stroke:none;stroke-width:0.637389"
             inkscape:connector-curvature="0"
             sodipodi:nodetypes="cccccccccccccccccccccccccccccssccsccccccccccsccccccc" />
          <path
             sodipodi:nodetypes="ccccccccccccccccccccccccccccccccccccccccc"
             inkscape:connector-curvature="0"
             id="path5931"
             d="m 390.70013,-10.551701 c -0.7455,-1.156837 -1.6187,-2.908406 -2.08602,-3.746316 -1.35378,-2.335392 -2.53852,-3.806509 -3.55386,-4.412863 -0.61496,-0.373753 -2.30457,-0.02485 -5.06911,1.046648 -2.06099,0.796402 -3.43968,1.396455 -4.13532,1.799689 -0.59627,0.345651 -0.63879,0.901228 -0.12826,1.667465 1.59562,2.496227 2.9751,4.8225943 5.21492,6.934847 0.17143,0.14018 0.48913,0.4278095 0.90659,0.40703 1.4707,-0.073172 4.27713,-1.1655543 5.10673,-2.3820342 0.13212,-0.1937284 0.009,-0.4445094 0.0397,-0.6376344 -0.50835,-1.5640964 -1.22327,-3.1412464 -2.14496,-4.7312394 -0.2022,-0.391272 -0.84899,-0.204955 -2.20136,-0.01849 -1.30268,0.157664 -2.10297,0.323163 -2.40109,0.495971 -1.14747,0.477402 0.6012,2.820226 1.2301,3.668134 -0.0874,-0.124836 0.14056,0.4640026 0.73043,0.5723137 0.49688,-0.2880307 0.59714,-0.7444677 0.30117,-1.3694827 -0.41912,-0.952041 -0.61832,-1.467113 -0.59745,-1.545571 0.53362,-0.110119 1.05282,-0.245262 1.55763,-0.405111 0.54912,-0.03381 0.632,0.231313 0.89123,0.678476 0.31685,0.546587 0.61427,1.403192 0.89223,2.5697893 -0.57145,0.3881419 -1.56861,1.0448015 -3.01415,1.3546274 -0.5122,0.1209457 -0.77955,-0.08896 -1.2915,-0.6792356 -1.14317,-1.2504081 -2.00434,-2.8561591 -3.14436,-4.4230781 -0.28804,-0.496897 -0.42544,-0.848599 -0.4125,-1.05526 2.20211,-1.010992 3.71511,-1.722202 4.53892,-2.133395 1.87521,-0.887849 3.27394,-0.536758 4.19564,1.053286 1.2639,2.121057 2.66141,4.535085 4.06362,6.5415682 0.21974,-0.3770908 0.62048,-0.4239964 0.87023,-0.7631632 z m -4.16296,7.8730729 c -0.005,-0.3023385 -0.002,-0.6051533 0.009,-0.9077771 0.008,-0.1252723 0.0179,-0.2503937 0.0282,-0.3753703 -2.97553,-0.087022 -6.48789,-0.6868249 -10.30629,-0.8343078 -1.11186,-0.085442 -1.83499,-0.131048 -2.16983,-0.1361351 -0.24846,0.14402 -0.43615,1.5073062 -0.53196,3.2888956 -0.0174,1.80242325 0.0747,2.8777509 0.2763,3.225579 0.0481,0.2176255 0.33108,0.4897459 0.78091,0.1445494 0.44721,-0.2592434 0.64716,-0.77326144 0.59966,-1.5423563 -0.10799,-1.3314838 -0.0472,-2.4289135 0.18247,-3.2923199 0.81946,-0.2788308 4.53943,-0.1342975 11.13108,0.4295888 z"
             style="font-weight:normal;font-size:72px;font-family:'Jiggery pokery';fill:#f1c40f;fill-opacity:1;stroke:none;stroke-width:0.637389" />
          <path
             style="font-weight:normal;font-size:72px;font-family:'Jiggery pokery';fill:#f1c40f;fill-opacity:1;stroke:none;stroke-width:0.637389"
             d="m 401.62013,-5.9897608 c 1.15683,-0.7454916 2.9084,-1.6186877 3.74631,-2.0860153 2.33539,-1.3537795 3.8065,-2.5385199 4.41286,-3.5538569 0.37376,-0.614968 0.0248,-2.304568 -1.04667,-5.069109 -0.7964,-2.060989 -1.39647,-3.439674 -1.7997,-4.135321 -0.34565,-0.596274 -0.90122,-0.638787 -1.66746,-0.128256 -2.49623,1.595623 -4.8226,2.975107 -6.93484,5.214912 -0.14018,0.171441 -0.42781,0.489131 -0.40704,0.906592 0.0732,1.470701 1.16556,4.277133 2.38204,5.1067353 0.19373,0.1321183 0.4445,0.00853 0.63763,0.039656 1.56409,-0.5083553 3.14126,-1.2232653 4.73124,-2.1449563 0.39127,-0.202192 0.20495,-0.848993 0.0185,-2.201361 -0.15765,-1.302682 -0.32316,-2.102968 -0.496,-2.401083 -0.4774,-1.147465 -2.82016,0.601493 -3.66813,1.230096 0.12483,-0.0874 -0.46399,0.140597 -0.57231,0.73043 0.28804,0.496883 0.74446,0.597144 1.36948,0.301176 0.95205,-0.419122 1.46712,-0.618328 1.54558,-0.597452 0.10992,0.533663 0.24529,1.052812 0.40512,1.557622 0.0338,0.549133 -0.23131,0.63201 -0.67847,0.891235 -0.54659,0.316844 -1.40321,0.614265 -2.56979,0.892222 -0.38814,-0.571446 -1.04481,-1.568604 -1.35463,-3.01415 -0.12091,-0.512199 0.089,-0.779541 0.67923,-1.291489 1.25041,-1.143169 2.85617,-2.004344 4.42308,-3.144364 0.4969,-0.288047 0.8486,-0.42544 1.05526,-0.412495 1.01099,2.202104 1.7222,3.715107 2.1334,4.538924 0.88785,1.875202 0.53674,3.273924 -1.05328,4.195635 -2.12107,1.2638941 -4.53509,2.6614078 -6.54157,4.0636157 0.37708,0.2197481 0.42399,0.6204834 0.76315,0.8702326 z m -7.87308,-4.1629462 c 0.30235,-0.0052 0.60514,-0.002 0.90778,0.0094 0.12527,0.0075 0.25038,0.0179 0.37536,0.0282 0.087,-2.97553 0.68683,-6.487893 0.83431,-10.306291 0.0855,-1.11186 0.13105,-1.834988 0.13613,-2.16983 -0.14398,-0.248462 -1.5073,-0.43615 -3.28888,-0.531961 -1.80243,-0.01741 -2.87776,0.07468 -3.22558,0.276303 -0.21752,0.04861 -0.48974,0.331086 -0.14455,0.780914 0.25924,0.447208 0.77326,0.647148 1.54235,0.59966 1.33148,-0.107994 2.42892,-0.04719 3.29232,0.182463 0.27883,0.819463 0.1343,4.53943 -0.42959,11.131094 z"
             id="path5933"
             inkscape:connector-curvature="0"
             sodipodi:nodetypes="ccccccccccccccccccccccccccccccccccccccccc" />
          <path
             style="font-weight:normal;font-size:72px;font-family:'Jiggery pokery';fill:#f1c40f;fill-opacity:1;stroke:none;stroke-width:0.637389"
             d="m 396.63514,3.7446937 c 0.74549,1.1568395 2.04824,3.9933822 2.51557,4.8312918 1.35378,2.3353915 2.53852,3.8065075 3.55386,4.4128635 0.61496,0.373753 2.30457,0.02485 5.06911,-1.046648 2.06098,-0.796402 3.43967,-1.396456 4.13532,-1.799689 0.59627,-0.3456508 0.63879,-0.9012277 0.12826,-1.6674648 -1.59562,-2.4962272 -2.97511,-4.8225944 -5.21492,-6.9348471 -0.17143,-0.1401798 -0.48913,-0.4278094 -0.90659,-0.4070298 -1.4707,0.073172 -4.27713,1.1655521 -5.10673,2.3820337 -0.13212,0.1937288 -0.009,0.4445094 -0.0397,0.6376343 0.50836,1.5640956 1.22327,3.1412475 2.14495,4.73124 0.2022,0.3912713 0.849,0.2049552 2.20136,0.018486 1.30269,-0.1576639 2.10297,-0.3231625 2.4011,-0.4959709 1.14746,-0.4774031 -0.6012,-2.8202265 -1.2301,-3.6681346 0.0873,0.1248361 -0.14056,-0.4640019 -0.73043,-0.5723129 -0.49688,0.2880303 -0.59715,0.7444675 -0.30118,1.3694827 0.41912,0.952041 0.61833,1.4671128 0.59746,1.5455705 -0.53362,0.1101583 -1.05282,0.2452598 -1.55763,0.4051088 -0.54913,0.033801 -0.63201,-0.2313128 -0.89123,-0.6784764 -0.31685,-0.5465872 -0.61427,-1.403192 -0.89223,-2.5697888 0.57145,-0.3881421 1.56861,-1.044802 3.01415,-1.3546283 0.5122,-0.1209485 0.77954,0.088961 1.29149,0.6792356 1.14317,1.2504085 2.00434,2.8561598 3.14437,4.4230785 0.28805,0.4968946 0.42544,0.8485983 0.41249,1.0552594 -2.2021,1.0109931 -3.7151,1.7222031 -4.53892,2.1333951 -1.8752,0.887849 -3.27393,0.536758 -4.19564,-1.053285 -1.26389,-2.1210576 -3.09096,-5.6200603 -4.49316,-7.6265454 -0.21975,0.3770906 -0.62048,0.423997 -0.87024,0.7631632 z m 4.5925,-6.7880964 c 0.005,0.3023384 0.002,0.6051533 -0.009,0.9077771 -0.008,0.1252723 -0.0179,0.2503937 -0.0282,0.3753702 2.97553,0.087019 6.48789,0.686825 10.3063,0.83430576 1.11185,0.0854438 1.83498,0.13105012 2.16982,0.13613725 0.24846,-0.14401999 0.43615,-1.50730631 0.53196,-3.28889561 0.0174,-1.8024234 -0.0747,-2.8777511 -0.27631,-3.2255795 -0.0481,-0.2176246 -0.33108,-0.4897456 -0.7809,-0.1445494 -0.44721,0.2592439 -0.64715,0.7732599 -0.59966,1.5423566 0.10799,1.3314839 0.0472,2.4289137 -0.18246,3.292318 -0.81947,0.2788328 -4.53943,0.1342975 -11.1311,-0.4295867 z"
             id="path5935"
             inkscape:connector-curvature="0"
             sodipodi:nodetypes="ccccccccccccccccccccccccccccccccccccccccc" />
          <circle
             transform="rotate(-11.954379)"
             r="1.0356694"
             cy="74.662392"
             cx="385.73788"
             id="circle5937"
             style="opacity:1;fill:#f1c40f;fill-opacity:1;stroke:none;stroke-width:1.665;stroke-linecap:round;stroke-miterlimit:4;stroke-dasharray:none;stroke-opacity:1" />
          <circle
             transform="rotate(-11.954379)"
             style="opacity:1;fill:#f1c40f;fill-opacity:1;stroke:none;stroke-width:1.665;stroke-linecap:round;stroke-miterlimit:4;stroke-dasharray:none;stroke-opacity:1"
             id="circle5939"
             cx="382.63086"
             cy="75.998734"
             r="1.0356694" />
          <circle
             transform="rotate(-11.954379)"
             r="1.0356694"
             cy="79.23938"
             cx="381.42816"
             id="circle5941"
             style="opacity:1;fill:#f1c40f;fill-opacity:1;stroke:none;stroke-width:1.665;stroke-linecap:round;stroke-miterlimit:4;stroke-dasharray:none;stroke-opacity:1" />
          <circle
             transform="rotate(-11.954379)"
             style="opacity:1;fill:#f1c40f;fill-opacity:1;stroke:none;stroke-width:1.665;stroke-linecap:round;stroke-miterlimit:4;stroke-dasharray:none;stroke-opacity:1"
             id="circle5943"
             cx="383.80017"
             cy="81.678215"
             r="1.0356694" />
          <circle
             transform="rotate(-11.954379)"
             r="1.0356694"
             cy="81.678215"
             cx="387.60876"
             id="circle5945"
             style="opacity:1;fill:#f1c40f;fill-opacity:1;stroke:none;stroke-width:1.665;stroke-linecap:round;stroke-miterlimit:4;stroke-dasharray:none;stroke-opacity:1" />
          <circle
             transform="rotate(-11.954379)"
             style="opacity:1;fill:#f1c40f;fill-opacity:1;stroke:none;stroke-width:1.665;stroke-linecap:round;stroke-miterlimit:4;stroke-dasharray:none;stroke-opacity:1"
             id="circle5947"
             cx="390.01419"
             cy="79.038925"
             r="1.0356694" />
          <circle
             transform="rotate(-11.954379)"
             r="1.0356694"
             cy="76.065552"
             cx="388.74466"
             id="circle5949"
             style="opacity:1;fill:#f1c40f;fill-opacity:1;stroke:none;stroke-width:1.665;stroke-linecap:round;stroke-miterlimit:4;stroke-dasharray:none;stroke-opacity:1" />
        </g>
        <path
           style="fill:none;stroke:#3498db;stroke-width:10.1494;stroke-linecap:round;stroke-linejoin:miter;stroke-miterlimit:4;stroke-dasharray:none;stroke-opacity:1"
           d="m 295.56837,302.43134 c -18.77969,0 -15.29894,-25.41801 -15.29894,-46.11585 v -56.31496"
           id="path5953"
           inkscape:connector-curvature="0"
           sodipodi:nodetypes="ccc"
           inkscape:export-xdpi="192"
           inkscape:export-ydpi="192"
           inkscape:export-filename="/home/micael/switch1.png" />
        <path
           sodipodi:nodetypes="ccc"
           inkscape:connector-curvature="0"
           id="path5955"
           d="m 295.24237,302.45535 c 16.79231,0 14.15556,-25.67706 14.15556,-46.13986 v -56.31496"
           style="fill:none;stroke:#3498db;stroke-width:10.1494;stroke-linecap:round;stroke-linejoin:miter;stroke-miterlimit:4;stroke-dasharray:none;stroke-opacity:1"
           inkscape:export-xdpi="192"
           inkscape:export-ydpi="192"
           inkscape:export-filename="/home/micael/switch1.png" />
        <g
           transform="matrix(6.4862416,0,0,6.4862416,2949.615,617.57228)"
           id="g5963"
           style="stroke:#f35a12;stroke-opacity:1"
           inkscape:export-xdpi="192"
           inkscape:export-ydpi="192"
           inkscape:export-filename="/home/micael/switch1.png">
          <g
             id="g5959"
             style="stroke:#f35a12;stroke-opacity:1">
            <path
               style="fill:none;stroke:#f35a12;stroke-width:1.565;stroke-linecap:round;stroke-linejoin:miter;stroke-miterlimit:4;stroke-dasharray:none;stroke-opacity:1"
               d="m -407.17254,-82.916565 c -4.7121,-0.08159 -4.24758,3.160645 -4.24758,6.746967 v 7.98475"
               id="path5957"
               inkscape:connector-curvature="0"
               sodipodi:nodetypes="ccc" />
          </g>
          <path
             style="fill:none;stroke:#f35a12;stroke-width:1.565;stroke-linecap:round;stroke-linejoin:miter;stroke-miterlimit:4;stroke-dasharray:none;stroke-opacity:1"
             d="m -407.19388,-75.952398 h -5.5125"
             id="path5961"
             inkscape:connector-curvature="0"
             sodipodi:nodetypes="cc" />
        </g>
        <path
           sodipodi:nodetypes="ccc"
           inkscape:connector-curvature="0"
           id="path5965"
           d="m 351.41587,175.18622 c -28.61031,2.13714 -27.40541,-19.10826 -27.40541,-43.5165 V 79.877253"
           style="fill:none;stroke:#f35a12;stroke-width:10.151;stroke-linecap:round;stroke-linejoin:miter;stroke-miterlimit:4;stroke-dasharray:none;stroke-opacity:1"
           inkscape:export-xdpi="192"
           inkscape:export-ydpi="192"
           inkscape:export-filename="/home/micael/switch1.png" />
        <path
           style="fill:none;stroke:#f35a12;stroke-width:10.151;stroke-linecap:round;stroke-linejoin:miter;stroke-miterlimit:4;stroke-dasharray:none;stroke-opacity:1"
           d="M 368.47774,175.29583 V 80.034893"
           id="path5967"
           inkscape:connector-curvature="0"
           sodipodi:nodetypes="cc"
           inkscape:export-xdpi="192"
           inkscape:export-ydpi="192"
           inkscape:export-filename="/home/micael/switch1.png" />
        <path
           sodipodi:nodetypes="cccc"
           inkscape:connector-curvature="0"
           id="path5969"
           d="m 419.08943,79.845213 c -5.31593,0 -26.35569,-2.53781 -27.6859,20.729807 -0.26819,31.70103 27.79548,23.2756 27.68052,54.69353 -1.38906,17.46805 -9.01048,21.14649 -27.9423,19.86158"
           style="fill:none;stroke:#f35a12;stroke-width:10.151;stroke-linecap:round;stroke-linejoin:miter;stroke-miterlimit:4;stroke-dasharray:none;stroke-opacity:1"
           inkscape:export-xdpi="192"
           inkscape:export-ydpi="192"
           inkscape:export-filename="/home/micael/switch1.png" />
        <path
           sodipodi:nodetypes="sssssssss"
           style="fill:none;fill-opacity:1;stroke:#f35a12;stroke-width:10.151;stroke-linecap:round;stroke-miterlimit:4;stroke-dasharray:none;stroke-opacity:1"
           d="m 450.49934,79.489863 h 7.63484 c 5.85022,0 10.5626,4.71237 10.5626,10.56527 v 74.643277 c 0,5.85304 -4.71238,10.56521 -10.5626,10.56521 h -7.63484 c -5.85293,0 -10.56512,-4.71217 -10.56512,-10.56521 V 90.055133 c 0,-5.8529 4.71219,-10.56527 10.56512,-10.56527 z"
           id="path5971"
           inkscape:connector-curvature="0"
           inkscape:export-xdpi="192"
           inkscape:export-ydpi="192"
           inkscape:export-filename="/home/micael/switch1.png" />
        <g
           id="g5979"
           transform="matrix(7.053126,0,0,7.053126,5140.8321,-625.1549)"
           inkscape:export-xdpi="192"
           inkscape:export-ydpi="192"
           inkscape:export-filename="/home/micael/switch1.png">
          <path
             style="fill:none;stroke:#3498db;stroke-width:1.439;stroke-linecap:round;stroke-linejoin:miter;stroke-miterlimit:4;stroke-dasharray:none;stroke-opacity:1"
             d="m -679.89975,116.93075 c -2.49351,0 -1.96816,2.80719 -1.96816,5.69321 v 8.83517"
             id="path5973"
             inkscape:connector-curvature="0"
             sodipodi:nodetypes="ccc" />
          <path
             sodipodi:nodetypes="ccc"
             inkscape:connector-curvature="0"
             id="path5975"
             d="m -679.82679,116.94826 c 2.28679,0 1.87736,2.82526 1.87736,5.67568 v 8.83517"
             style="fill:none;stroke:#3498db;stroke-width:1.439;stroke-linecap:round;stroke-linejoin:miter;stroke-miterlimit:4;stroke-dasharray:none;stroke-opacity:1" />
          <path
             style="fill:none;stroke:#3498db;stroke-width:1.43922;stroke-linecap:round;stroke-linejoin:miter;stroke-miterlimit:4;stroke-dasharray:none;stroke-opacity:1"
             d="m -681.77907,123.90944 h 3.6677"
             id="path5977"
             inkscape:connector-curvature="0"
             sodipodi:nodetypes="cc" />
        </g>
        <g
           id="g5987"
           transform="matrix(7.053126,0,0,7.053126,5277.9717,-737.78766)"
           inkscape:export-xdpi="192"
           inkscape:export-ydpi="192"
           inkscape:export-filename="/home/micael/switch1.png">
          <path
             sodipodi:nodetypes="csc"
             inkscape:connector-curvature="0"
             id="path5981"
             d="m -685.06903,147.49131 c -4.24997,-0.0715 -3.74356,-2.73217 -3.80222,-6.00085 -0.005,-0.26253 0.0118,-0.47918 -0.003,-0.74923"
             style="fill:none;stroke:#3498db;stroke-width:1.439;stroke-linecap:round;stroke-linejoin:miter;stroke-miterlimit:4;stroke-dasharray:none;stroke-opacity:1" />
          <path
             style="fill:none;stroke:#3498db;stroke-width:1.439;stroke-linecap:round;stroke-linejoin:miter;stroke-miterlimit:4;stroke-dasharray:none;stroke-opacity:1"
             d="m -685.04564,133.15054 c -0.25809,0.004 -0.49941,-0.0169 -0.72505,0.005 -3.44239,0.32836 -3.11756,2.67924 -3.09678,5.63173 0.002,0.3521 0.002,2.14767 -0.007,2.51447"
             id="path5983"
             inkscape:connector-curvature="0"
             sodipodi:nodetypes="cssc" />
          <path
             sodipodi:nodetypes="cc"
             inkscape:connector-curvature="0"
             id="path5985"
             d="m -688.55866,140.48015 h 3.43146"
             style="fill:none;stroke:#3498db;stroke-width:1.43922;stroke-linecap:round;stroke-linejoin:miter;stroke-miterlimit:4;stroke-dasharray:none;stroke-opacity:1" />
        </g>
        <path
           style="fill:none;stroke:#f35a12;stroke-width:10.151;stroke-linecap:round;stroke-linejoin:miter;stroke-miterlimit:4;stroke-dasharray:none;stroke-opacity:1"
           d="m 516.03595,175.18622 c -28.61031,2.13714 -27.4055,-19.10826 -27.4055,-43.5165 V 79.877253"
           id="path5989"
           inkscape:connector-curvature="0"
           sodipodi:nodetypes="ccc"
           inkscape:export-xdpi="192"
           inkscape:export-ydpi="192"
           inkscape:export-filename="/home/micael/switch1.png" />
        <path
           style="fill:none;stroke:#3498db;stroke-width:10.151;stroke-linecap:round;stroke-linejoin:miter;stroke-miterlimit:4;stroke-dasharray:none;stroke-opacity:1"
           d="m 405.40144,301.14914 c -28.6104,2.1371 -27.40551,-19.10565 -27.40551,-43.51655 v -57.12187"
           id="path5991"
           inkscape:connector-curvature="0"
           sodipodi:nodetypes="ccc"
           inkscape:export-xdpi="192"
           inkscape:export-ydpi="192"
           inkscape:export-filename="/home/micael/switch1.png" />
        <path
           sodipodi:nodetypes="sssssssss"
           style="fill:none;fill-opacity:1;stroke:#ffffff;stroke-width:5.18335;stroke-linecap:round;stroke-miterlimit:4;stroke-dasharray:none;stroke-opacity:1"
           d="m 501.55184,196.27666 v 0 c 4.99282,0 7.48249,5.3401 7.48249,17.13948 v 17.28373 c 0,10.73355 -3.60098,15.01308 -6.47003,15.01308 h -0.80118 c -2.86905,0 -7.30086,-2.51109 -7.30086,-15.90003 V 213.9477 c 0,-14.1021 2.35081,-17.67104 7.00704,-17.67104 z"
           id="path5993"
           inkscape:connector-curvature="0"
           inkscape:export-xdpi="192"
           inkscape:export-ydpi="192"
           inkscape:export-filename="/home/micael/switch1.png" />
        <path
           style="fill:none;stroke:#ffffff;stroke-width:5.06762;stroke-linecap:round;stroke-linejoin:miter;stroke-miterlimit:4;stroke-dasharray:none;stroke-opacity:1"
           d="m 470.29951,196.80822 c 6.60099,0 14.09682,0.42799 14.09682,10.38624 0,17.65236 -7.78974,24.42171 -13.39153,32.74026 -1.65624,2.64466 -2.1638,4.96072 2.16377,4.9394 h 11.25444"
           id="path5995"
           inkscape:connector-curvature="0"
           sodipodi:nodetypes="csccc"
           inkscape:export-xdpi="192"
           inkscape:export-ydpi="192"
           inkscape:export-filename="/home/micael/switch1.png" />
        <path
           style="fill:none;stroke:#ffffff;stroke-width:5.06762;stroke-linecap:round;stroke-linejoin:miter;stroke-miterlimit:4;stroke-dasharray:none;stroke-opacity:1"
           d="m 470.29951,256.96201 c 6.60099,0 14.09682,0.42801 14.09682,10.38631 0,17.6524 -7.78974,24.42164 -13.39153,32.74025 -1.65624,2.6446 -2.1638,4.96072 2.16377,4.93938 h 11.25444"
           id="path5997"
           inkscape:connector-curvature="0"
           sodipodi:nodetypes="csccc"
           inkscape:export-xdpi="192"
           inkscape:export-ydpi="192"
           inkscape:export-filename="/home/micael/switch1.png" />
        <path
           style="fill:none;stroke:#ffffff;stroke-width:5.06762;stroke-linecap:round;stroke-linejoin:miter;stroke-miterlimit:4;stroke-dasharray:none;stroke-opacity:1"
           d="m 496.41758,256.96201 c 6.59827,0 14.0941,0.42801 14.0941,10.38631 0,17.6524 -7.78706,24.42164 -13.39155,32.74025 -1.65636,2.6446 -2.16392,4.96072 2.19052,4.93938 h 11.25439"
           id="path5999"
           inkscape:connector-curvature="0"
           sodipodi:nodetypes="csccc"
           inkscape:export-xdpi="192"
           inkscape:export-ydpi="192"
           inkscape:export-filename="/home/micael/switch1.png" />
      </g>
    </g>
  </g>
</svg>
